<svg version="1.2" xmlns="http://www.w3.org/2000/svg" viewBox="0 0 63 129" width="63" height="129">
	<title>before-svg</title>
	<style>
		.s0 { fill: #2ec4b6 } 
	</style>
	<g id="Layer">
		<path id="Layer" class="s0" d="m55.8 66.7c-0.7 0.6-2.5 1.3-3.9 1.6-2.6 0.7-26.3-0.8-30.3-1.8-4.2-1 1.6 1.2 7.6 2.9 9.8 2.8 14.1 8.9 10.2 14.4-3 4.4-8.8 1.5-12.8-6.5-1.6-3.1-8.5-8.8-9.5-7.8-0.3 0.3 1.6 2.7 4.2 5.3 2.6 2.6 4.7 5.2 4.7 5.6 0 0.5 1.1 2.4 2.5 4.2 3.3 4.3 3.4 9.1 0.1 10.4-2.1 0.8-6.6 0.4-6.6-0.6 0-2.5-5.5-20.5-7.1-23-2.3-3.8-2.2-11.3 0.4-16 1.9-3.6 3.3-7.5 4.7-13.4 2.1-8.8 2.9-10 6.6-10 6 0 6.7 5 1.8 11.6-1.3 1.7-2.4 3.6-2.4 4.2 0 0.6-0.8 1.6-1.8 2.1-2.5 1.3-7.6 8.1-6.1 8.1 1.4 0 7.4-6.3 11.7-12.3 3.7-5.3 7.1-6.2 9.6-2.5 4.2 5.9-0.6 12.2-11.6 15.3-6.9 1.9-7.3 3.1-0.5 1.5 2.5-0.5 9.8-1.1 16.2-1.2 9.4-0.3 11.7 0 12.5 1.2 1.4 2.1 1.2 5.6-0.2 6.7z"/>
		<path id="Layer" class="s0" d="m15.6 5.9c-3.2 3-5.6 8.1-5.6 11.8 0 1.6 1.4 6.4 3 10.6 3.2 8.3 3.6 12.1 2 17.6-1 3.7-6.7 11.7-8.9 12.6-2.3 0.9-2.6-0.4-0.5-2.8 6.1-6.8 6.4-10.6 2.5-25.6-1.5-5.5-2-9.7-1.6-12 1.1-6.1 4.4-11.8 8.1-14 4-2.4 4.5-1.4 1 1.8z"/>
		<path id="Layer" class="s0" d="m15.3 122.6c-8-4.1-12.1-15.1-9.2-24.6 4-13.2 4.9-20.2 2.9-21.5-0.5-0.3-1-1.4-1-2.4 0-1-0.9-2.6-2-3.6-2.5-2.2-2.6-3.5-0.2-2.8 0.9 0.2 3.3 2.8 5.2 5.6 3.1 4.7 3.5 5.9 3.5 12.3 0 3.9-0.5 7.7-1.1 8.5-1.8 2.3-4.4 11-4.4 14.9 0 3.6 3.4 9.7 7.3 12.9 2.5 2 2.1 2.3-1 0.7z"/>
	</g>
</svg>