<svg version="1.2" baseProfile="tiny-ps" xmlns="http://www.w3.org/2000/svg" viewBox="0 0 129 63" width="129" height="63">
	<title>image-svg</title>
	<style>
		tspan { white-space:pre }
		.s0 { fill: #2ec4b6 } 
		.s1 { fill: #2ec4b6 } 
	</style>
	<g id="Layer">
		<path id="Layer" class="s0" d="m67.7 5.2c0.6 0.7 1.3 2.5 1.6 3.9c0.7 2.6-0.8 26.3-1.8 30.3c-1 4.2 1.2-1.6 2.9-7.6c2.8-9.8 8.9-14.1 14.4-10.2c4.4 3 1.5 8.8-6.5 12.8c-3.1 1.6-8.8 8.5-7.8 9.5c0.3 0.3 2.7-1.6 5.3-4.2c2.6-2.6 5.2-4.7 5.6-4.7c0.5 0 2.4-1.1 4.2-2.5c4.3-3.3 9.1-3.4 10.4-0.1c0.8 2.1 0.4 6.6-0.6 6.6c-2.5 0-20.5 5.5-23 7.1c-3.8 2.3-11.3 2.2-16-0.4c-3.6-1.9-7.5-3.3-13.4-4.7c-8.8-2.1-10-2.9-10-6.6c0-6 5-6.7 11.6-1.8c1.7 1.3 3.6 2.4 4.2 2.4c0.6 0 1.6 0.8 2.1 1.8c1.3 2.5 8.1 7.6 8.1 6.1c0-1.4-6.3-7.4-12.3-11.7c-5.3-3.7-6.2-7.1-2.5-9.6c5.9-4.2 12.2 0.6 15.3 11.6c1.9 6.9 3.1 7.3 1.5 0.5c-0.5-2.5-1.1-9.8-1.2-16.2c-0.3-9.4 0-11.7 1.2-12.5c2.1-1.4 5.6-1.2 6.7 0.2z" />
		<path id="Layer" class="s1" d="m6.9 45.4c3 3.2 8.1 5.6 11.8 5.6c1.6 0 6.4-1.4 10.6-3c8.3-3.2 12.1-3.6 17.6-2c3.7 1 11.7 6.7 12.6 8.9c0.9 2.3-0.4 2.6-2.8 0.5c-6.8-6.1-10.6-6.4-25.6-2.5c-5.5 1.5-9.7 2-12 1.6c-6.1-1.1-11.8-4.4-14-8.1c-2.4-4-1.4-4.5 1.8-1z" />
		<path id="Layer" class="s1" d="m123.6 45.7c-4.1 8-15.1 12.1-24.6 9.2c-13.2-4-20.2-4.9-21.5-2.9c-0.3 0.5-1.4 1-2.4 1c-1 0-2.6 0.9-3.6 2c-2.2 2.5-3.5 2.6-2.8 0.2c0.2-0.9 2.8-3.3 5.6-5.2c4.7-3.1 5.9-3.5 12.3-3.5c3.9 0 7.7 0.5 8.5 1.1c2.3 1.8 11 4.4 14.9 4.4c3.6 0 9.7-3.4 12.9-7.3c2-2.5 2.3-2.1 0.7 1z" />
	</g>
</svg>