<?xml version="1.0" standalone="no"?>
<!DOCTYPE svg PUBLIC "-//W3C//DTD SVG 20010904//EN"
 "http://www.w3.org/TR/2001/REC-SVG-20010904/DTD/svg10.dtd">
<svg version="1.0" xmlns="http://www.w3.org/2000/svg"
 width="313.000000pt" height="313.000000pt" viewBox="0 0 313.000000 313.000000"
 preserveAspectRatio="xMidYMid meet">

<g transform="translate(0.000000,313.000000) scale(0.100000,-0.100000)"
fill="#000000" stroke="none">
<path d="M1426 3051 l-48 -49 47 -21 c62 -27 76 -27 131 8 l46 29 -55 41 c-31
22 -60 41 -64 41 -5 0 -30 -22 -57 -49z"/>
<path d="M1732 3046 c-58 -36 -58 -34 16 -86 l34 -23 59 18 c32 10 59 20 59
23 0 15 -85 102 -98 101 -10 0 -41 -15 -70 -33z"/>
<path d="M1126 3001 c-52 -70 -49 -75 41 -86 46 -6 50 -5 87 34 22 22 38 42
35 45 -9 8 -109 56 -118 56 -5 0 -25 -22 -45 -49z"/>
<path d="M2037 2978 l-57 -20 19 -26 c43 -60 61 -69 126 -63 33 3 60 10 59 14
-2 20 -67 117 -78 116 -6 0 -37 -10 -69 -21z"/>
<path d="M1585 2960 c-61 -36 -127 -40 -185 -10 -53 27 -61 26 -104 -16 -50
-49 -113 -65 -181 -47 -27 7 -53 13 -56 13 -4 0 -22 -22 -40 -49 -43 -63 -98
-91 -178 -91 l-59 0 -22 -55 c-27 -67 -68 -100 -146 -117 l-59 -13 -13 -59
c-17 -77 -50 -119 -118 -147 l-54 -23 0 -58 c0 -68 -29 -137 -69 -161 -71 -44
-72 -46 -57 -110 17 -74 6 -115 -46 -176 -21 -24 -38 -49 -38 -55 0 -6 9 -31
20 -55 30 -64 26 -123 -11 -187 l-31 -54 35 -48 c46 -62 56 -123 31 -191 l-18
-50 51 -54 c57 -60 69 -95 61 -178 l-5 -50 51 -30 c68 -41 99 -88 104 -161 l4
-56 58 -21 c70 -26 124 -81 140 -143 14 -51 23 -58 76 -58 55 0 126 -47 162
-105 l27 -45 61 0 c83 0 121 -15 175 -67 l47 -45 49 16 c69 23 135 13 196 -30
l47 -34 53 30 c65 37 120 39 194 8 l53 -22 38 36 c47 46 104 62 191 54 l66 -6
27 39 c37 55 110 91 182 91 54 0 55 0 66 36 15 45 71 108 108 122 15 6 46 16
69 22 39 10 42 13 48 53 12 72 63 136 132 167 42 19 43 20 43 70 0 68 37 141
93 181 23 17 42 33 42 37 -1 4 -5 32 -9 63 -10 72 6 130 50 178 40 45 40 49
14 101 -29 57 -26 117 10 185 l30 56 -34 49 c-42 61 -52 126 -30 193 l16 48
-45 48 c-53 57 -71 105 -65 178 l5 55 -50 31 c-62 38 -107 105 -107 161 0 54
-6 60 -66 80 -64 21 -109 67 -132 136 l-19 55 -54 6 c-76 8 -131 43 -166 104
l-29 50 -62 -4 c-79 -4 -114 10 -174 67 l-48 46 -56 -18 c-72 -23 -125 -14
-185 30 -26 19 -48 34 -50 34 -2 0 -26 -14 -54 -30z m196 -96 c592 -101 1034
-575 1099 -1179 24 -222 -28 -501 -133 -710 -77 -155 -242 -354 -380 -458
-527 -400 -1261 -352 -1728 113 -387 384 -497 966 -278 1465 173 396 550 691
979 769 106 20 326 19 441 0z"/>
<path d="M1701 2643 l-19 -37 27 -47 c14 -26 24 -50 21 -53 -3 -3 -33 2 -67
11 -51 13 -63 20 -73 44 -21 51 -88 51 -109 1 -17 -40 -18 -107 -2 -126 7 -9
27 -16 43 -16 27 0 29 -2 17 -16 -7 -9 -37 -30 -67 -46 -29 -17 -51 -35 -49
-42 2 -6 31 -12 68 -14 56 -3 66 0 82 19 9 12 20 39 23 61 6 36 9 39 32 33 13
-3 37 -8 52 -11 81 -17 140 86 104 180 -5 13 2 16 45 16 50 0 53 1 67 35 7 19
14 37 14 40 0 3 -43 5 -95 5 l-95 0 -19 -37z m-156 -133 c3 -5 -1 -10 -9 -10
-8 0 -18 5 -21 10 -3 6 1 10 9 10 8 0 18 -4 21 -10z"/>
<path d="M1290 2601 l-19 -39 25 -16 c13 -9 22 -21 19 -25 -9 -16 -79 -19
-113 -5 -36 15 -36 15 -46 -43 -5 -28 -1 -34 29 -52 19 -11 35 -25 35 -30 0
-6 -22 -37 -50 -70 -71 -86 -68 -93 27 -65 61 18 77 42 71 106 -3 36 -2 37 33
43 54 9 74 37 73 99 -1 52 -35 136 -54 136 -5 0 -19 -18 -30 -39z"/>
<path d="M809 2548 c-12 -23 -31 -82 -44 -132 l-22 -91 -7 46 c-9 59 -29 89
-48 71 -9 -10 -13 -51 -13 -155 -1 -78 -5 -149 -10 -157 -12 -19 -9 -111 4
-153 6 -17 11 -59 12 -92 1 -33 9 -71 17 -84 11 -18 11 -29 4 -47 -9 -18 -7
-28 7 -46 17 -20 17 -23 3 -34 -39 -28 36 -84 113 -84 26 0 34 -15 13 -24 -9
-3 -7 -9 6 -20 11 -9 20 -27 21 -40 2 -46 61 -90 89 -67 10 9 12 6 9 -13 -4
-20 3 -29 41 -51 29 -17 56 -25 71 -23 17 4 31 -2 46 -18 21 -22 21 -27 10
-62 -16 -48 -5 -74 39 -92 25 -10 34 -10 54 4 24 15 25 14 44 -19 31 -51 69
-70 134 -66 25 2 32 38 13 67 -27 42 -8 40 40 -5 52 -48 69 -50 106 -15 26 25
29 25 56 11 15 -9 55 -27 88 -42 110 -48 175 -109 175 -163 0 -52 -85 -112
-215 -151 -312 -93 -722 -72 -955 49 -78 41 -80 43 -80 79 0 61 -18 103 -62
148 -65 67 -78 57 -78 -55 0 -77 26 -144 62 -163 12 -6 40 -27 62 -47 79 -70
240 -128 424 -153 126 -17 401 -6 526 21 189 40 345 118 406 201 37 51 40 108
9 174 -26 55 -97 136 -145 166 -48 29 -30 44 27 23 25 -9 79 -17 124 -18 73
-1 80 1 80 19 0 15 -12 23 -50 34 -57 18 -63 16 115 29 l105 7 0 28 c0 28 3
30 92 52 137 35 169 58 96 70 -21 4 -45 8 -53 9 -8 2 12 15 45 30 195 88 262
132 290 186 22 43 3 44 -57 4 -130 -89 -325 -162 -508 -189 -307 -47 -619 30
-808 200 -65 59 -69 89 -15 111 70 30 135 2 147 -62 12 -61 66 -71 121 -23 35
31 36 31 56 13 23 -20 79 -22 135 -4 27 9 38 9 56 -4 26 -19 46 -20 83 -6 22
8 25 13 15 25 -6 7 -25 17 -41 20 -16 4 -29 11 -29 17 0 11 14 8 67 -13 36
-15 58 -4 48 23 -7 19 -591 268 -628 268 -15 0 -27 -4 -27 -9 0 -9 59 -39 123
-62 20 -7 37 -18 37 -25 0 -9 -14 -8 -57 3 -82 21 -179 13 -235 -20 -57 -33
-82 -61 -122 -136 l-33 -63 -42 49 c-53 61 -126 209 -146 293 -20 89 -19 212
5 355 24 147 24 135 0 135 -13 0 -27 -14 -41 -42z m761 -613 c29 -15 40 -35
20 -35 -20 0 -60 24 -60 37 0 17 4 16 40 -2z"/>
<path d="M2033 2431 c-42 -26 -63 -59 -63 -99 0 -61 148 -193 201 -179 14 4
21 -1 25 -21 11 -51 38 -104 61 -119 13 -9 23 -25 23 -38 0 -13 11 -37 25 -53
14 -17 25 -42 25 -57 0 -18 6 -29 18 -32 14 -3 18 -11 14 -29 -7 -35 14 -54
61 -54 42 0 127 34 127 51 0 17 -30 22 -56 10 -20 -9 -26 -8 -31 4 -3 9 2 24
11 34 23 25 20 31 -14 31 -34 0 -41 25 -13 45 21 15 9 35 -22 35 -32 0 -63 55
-46 82 21 34 14 50 -18 43 -28 -6 -32 -3 -60 47 -23 39 -31 66 -31 101 l0 47
40 -20 c51 -26 62 -25 90 5 l23 25 -58 25 c-32 15 -71 33 -86 40 -24 13 -30
12 -53 -6 -21 -17 -26 -29 -26 -65 0 -24 -4 -44 -9 -44 -6 0 -37 25 -70 56
-62 57 -71 78 -50 116 16 31 -2 40 -38 19z"/>
<path d="M2274 2398 c-9 -14 0 -19 84 -57 51 -23 77 -30 84 -23 11 11 -6 22
-105 66 -36 15 -59 21 -63 14z"/>
<path d="M1358 2284 c-12 -12 -20 -13 -36 -5 -17 9 -23 7 -36 -14 -15 -23 -15
-25 9 -41 24 -16 27 -16 39 1 10 14 17 15 33 7 17 -9 24 -8 38 8 18 20 14 34
-14 49 -13 7 -22 6 -33 -5z"/>
<path d="M2428 2141 c-5 -35 -5 -35 34 -45 23 -5 27 -3 33 25 8 36 7 37 -32
45 -28 6 -31 4 -35 -25z"/>
<path d="M2563 1270 c-26 -11 -43 -40 -43 -74 0 -58 111 -92 144 -44 20 28 21
82 1 98 -12 10 -15 7 -21 -14 -3 -13 -3 -29 0 -34 6 -11 -21 -38 -30 -29 -3 3
0 24 7 46 7 23 10 43 8 45 -12 10 -47 14 -66 6z m27 -49 c0 -20 -13 -41 -21
-35 -15 9 -10 44 6 44 8 0 15 -4 15 -9z"/>
<path d="M2477 1102 c-10 -10 -17 -29 -17 -41 0 -12 -4 -20 -9 -17 -8 5 -21
-15 -21 -32 0 -4 29 -23 65 -42 56 -30 67 -33 75 -20 14 22 14 22 -35 52 -30
18 -45 34 -45 48 0 26 10 25 70 -5 48 -24 50 -24 60 -6 9 17 3 23 -44 50 -62
36 -77 38 -99 13z"/>
<path d="M2382 945 c-51 -22 -59 -90 -16 -130 35 -33 74 -32 108 1 31 32 34
71 6 106 -24 31 -59 39 -98 23z m60 -52 c23 -21 23 -40 0 -52 -34 -18 -82 36
-55 62 11 12 36 8 55 -10z"/>
<path d="M2226 843 c-9 -29 9 -78 28 -77 9 1 25 -11 37 -27 32 -45 52 -52 83
-28 21 17 24 24 15 35 -8 10 -15 11 -24 4 -16 -13 -60 34 -60 63 0 16 -6 22
-21 22 -11 0 -28 6 -37 13 -13 11 -16 10 -21 -5z"/>
<path d="M2121 777 c-13 -6 -33 -25 -45 -40 -19 -26 -19 -30 -5 -55 15 -28 28
-30 123 -20 38 4 44 -16 12 -37 -19 -12 -29 -14 -44 -6 -27 14 -51 -11 -32
-34 20 -24 74 -18 109 11 36 30 42 81 13 107 -22 20 -41 21 -93 5 -44 -13 -58
-6 -39 17 8 10 22 14 36 11 13 -4 27 0 35 10 11 14 10 18 -6 30 -23 17 -33 17
-64 1z"/>
<path d="M1888 652 c-10 -2 -18 -10 -18 -18 0 -19 28 -30 42 -16 14 14 -3 39
-24 34z"/>
<path d="M2020 645 c-7 -8 -18 -15 -26 -15 -25 0 -25 -20 2 -72 37 -74 42 -80
65 -67 18 9 18 11 -6 60 -26 50 -26 69 0 69 8 0 11 7 8 20 -6 24 -26 26 -43 5z"/>
<path d="M1350 598 c-1 -7 -7 -54 -14 -105 -11 -79 -11 -93 1 -98 27 -10 32
-5 39 30 3 20 14 40 23 45 14 7 20 0 36 -40 14 -37 25 -50 44 -53 14 -3 28 -3
30 -1 3 3 -9 34 -27 69 l-32 64 40 32 c47 38 50 49 14 49 -16 0 -45 -15 -72
-37 l-45 -37 6 41 c6 32 4 42 -9 47 -24 9 -34 7 -34 -6z"/>
<path d="M1895 590 c-3 -6 3 -40 15 -75 16 -47 26 -65 39 -65 29 0 30 9 7 78
-22 64 -45 88 -61 62z"/>
<path d="M1828 573 c-11 -3 -18 -20 -23 -55 l-7 -51 -27 42 c-24 38 -53 52
-65 32 -3 -4 15 -37 40 -72 44 -62 68 -75 86 -46 7 12 22 147 17 151 -2 1 -11
1 -21 -1z"/>
<path d="M1572 524 c-27 -19 -29 -44 -2 -44 11 0 20 5 20 10 0 6 9 10 20 10
33 0 23 -16 -20 -33 -35 -13 -40 -20 -40 -46 0 -25 6 -34 26 -41 15 -6 32 -6
42 -1 10 5 30 7 45 4 l28 -5 -7 68 c-4 44 -12 73 -22 82 -22 17 -63 15 -90 -4z
m68 -89 c0 -19 -24 -30 -41 -19 -9 5 -7 11 6 21 24 17 35 17 35 -2z"/>
<path d="M837 2877 c-15 -34 -27 -65 -27 -69 0 -5 28 -8 63 -8 l62 1 38 52 38
52 -38 11 c-21 6 -54 14 -73 17 -35 6 -35 6 -63 -56z"/>
<path d="M2328 2851 c-31 -3 -59 -9 -62 -11 -3 -3 8 -29 24 -57 27 -47 34 -52
73 -58 24 -4 53 -5 64 -3 l20 3 -21 64 c-12 36 -26 65 -31 66 -6 1 -36 -1 -67
-4z"/>
<path d="M614 2763 c-18 -3 -24 -16 -34 -69 -7 -36 -10 -67 -8 -69 3 -3 31 0
62 7 57 11 58 12 82 66 13 30 23 56 22 57 -7 6 -105 12 -124 8z"/>
<path d="M2510 2665 c0 -5 8 -32 17 -61 15 -48 21 -55 57 -68 93 -34 89 -35
81 31 -10 89 -12 93 -48 93 -18 0 -49 3 -69 6 -21 4 -38 3 -38 -1z"/>
<path d="M418 2547 l-48 -10 0 -74 c0 -40 2 -73 4 -73 2 0 28 11 58 24 52 23
55 26 66 76 7 28 12 56 12 61 0 11 -29 10 -92 -4z"/>
<path d="M2720 2405 c0 -66 13 -88 68 -118 l50 -27 6 27 c8 41 11 111 5 117
-3 3 -33 14 -67 25 l-62 19 0 -43z"/>
<path d="M250 2292 c-30 -15 -54 -32 -53 -37 13 -79 26 -125 34 -125 5 0 30
15 54 33 44 32 44 32 45 95 0 72 -1 72 -80 34z"/>
<path d="M2870 2156 c0 -18 -3 -47 -6 -63 -5 -26 0 -34 45 -72 l50 -42 20 67
c12 36 21 68 21 69 0 5 -116 75 -124 75 -3 0 -6 -15 -6 -34z"/>
<path d="M137 2009 c-32 -23 -56 -47 -54 -53 3 -6 13 -31 22 -56 27 -67 31
-68 76 -25 39 38 40 42 34 88 -11 92 -13 92 -78 46z"/>
<path d="M2955 1844 c-19 -61 -17 -71 31 -129 l24 -30 20 25 c10 14 27 42 37
64 l17 39 -49 43 c-28 24 -53 44 -56 44 -4 0 -14 -25 -24 -56z"/>
<path d="M73 1700 c-24 -26 -43 -50 -43 -54 0 -7 80 -116 85 -116 2 0 17 24
34 54 l30 55 -24 55 c-14 31 -28 56 -32 55 -5 -1 -27 -22 -50 -49z"/>
<path d="M2984 1553 c-32 -56 -33 -62 -4 -127 l21 -49 40 39 c65 62 65 66 19
129 -22 30 -42 55 -44 55 -2 0 -17 -21 -32 -47z"/>
<path d="M82 1394 c-18 -31 -32 -60 -32 -66 0 -10 90 -97 101 -98 3 0 14 27
24 60 l18 60 -28 40 c-45 65 -48 65 -83 4z"/>
<path d="M2947 1254 c-37 -42 -38 -47 -32 -92 11 -79 16 -82 79 -38 31 21 56
42 56 46 0 12 -50 119 -58 124 -4 2 -24 -16 -45 -40z"/>
<path d="M151 1088 c-12 -34 -21 -65 -21 -70 0 -9 100 -68 116 -68 6 0 14 26
17 58 6 57 6 57 -36 100 -22 23 -44 42 -48 42 -4 0 -17 -28 -28 -62z"/>
<path d="M2852 974 l-52 -37 0 -64 c0 -73 0 -73 91 -27 l47 23 -15 63 c-7 35
-15 66 -16 71 -1 4 -26 -9 -55 -29z"/>
<path d="M286 838 c-3 -18 -7 -51 -8 -72 l-3 -39 68 -23 67 -23 0 33 c0 70
-11 97 -52 122 -62 39 -66 39 -72 2z"/>
<path d="M2694 716 c-49 -23 -51 -25 -62 -81 -7 -32 -10 -60 -8 -63 3 -2 33 2
68 10 l63 13 3 73 c2 39 -1 72 -5 72 -4 0 -31 -11 -59 -24z"/>
<path d="M466 558 c4 -35 12 -68 18 -74 16 -16 136 -26 135 -11 0 7 -8 34 -18
61 -16 46 -21 51 -67 67 -75 27 -74 27 -68 -43z"/>
<path d="M2482 498 c-34 -7 -46 -16 -61 -46 -41 -82 -41 -82 39 -82 80 0 82 2
95 93 8 53 7 53 -73 35z"/>
<path d="M683 403 c3 -5 12 -34 21 -67 l17 -59 70 5 c38 3 72 8 75 11 9 8 -46
96 -66 107 -22 12 -123 14 -117 3z"/>
<path d="M2156 278 l-36 -53 52 -12 c90 -21 92 -20 122 46 14 32 26 61 26 65
0 3 -29 6 -64 6 l-63 0 -37 -52z"/>
<path d="M983 263 c-24 -2 -43 -7 -43 -10 0 -11 72 -123 79 -123 4 0 35 9 69
21 69 23 69 20 8 87 -17 18 -39 31 -50 30 -12 -1 -40 -3 -63 -5z"/>
<path d="M1871 180 l-43 -40 66 -31 c37 -17 69 -29 72 -26 3 2 23 29 45 58 45
61 44 63 -48 74 -45 5 -50 3 -92 -35z"/>
<path d="M1278 174 c-27 -8 -48 -18 -48 -22 1 -4 21 -29 47 -57 l45 -50 56 31
c31 16 57 35 59 41 5 13 -75 73 -96 72 -9 0 -37 -7 -63 -15z"/>
<path d="M1581 148 l-54 -31 34 -28 c19 -15 46 -35 62 -44 27 -16 27 -16 80
34 l52 50 -58 25 c-32 14 -59 26 -60 26 -1 0 -26 -15 -56 -32z"/>
</g>
</svg>
